<svg width="128" height="128" viewBox="0 0 128 128" fill="none" xmlns="http://www.w3.org/2000/svg">
<path opacity="0.2" d="M119 117.5C118.998 119.091 113.202 120.617 102.888 121.742C92.5733 122.867 78.5853 123.499 64 123.499C49.4147 123.499 35.4267 122.867 25.1124 121.742C14.7982 120.617 9.00249 119.091 9 117.5C8.99877 116.712 10.4205 115.932 13.1839 115.204C15.9474 114.475 19.9985 113.814 25.1058 113.257C30.2132 112.699 36.2767 112.257 42.9502 111.956C49.6238 111.654 56.7765 111.499 64 111.499C71.2235 111.499 78.3762 111.654 85.0498 111.956C91.7233 112.257 97.7868 112.699 102.894 113.257C108.002 113.814 112.053 114.475 114.816 115.204C117.58 115.932 119.001 116.712 119 117.5V117.5Z" fill="url(#paint0_radial)"/>
<g opacity="0.4">
<path opacity="0.4" d="M118 115.5H103.789V120.5H118V115.5Z" fill="url(#paint1_radial)"/>
<path opacity="0.4" d="M9.99998 120.5H24.2105V115.5H9.99998V120.5Z" fill="url(#paint2_radial)"/>
<path opacity="0.4" d="M103.789 115.5H24.2105V120.5H103.789V115.5Z" fill="url(#paint3_linear)"/>
</g>
<path d="M105.5 15H22.5C16.9772 15 12.5 19.4772 12.5 25V108C12.5 113.523 16.9772 118 22.5 118H105.5C111.023 118 115.5 113.523 115.5 108V25C115.5 19.4772 111.023 15 105.5 15Z" fill="url(#paint4_linear)"/>
<path d="M22.5 17H105.5C109.642 17 113.5 20.8579 113.5 25V108C113.5 112.142 109.642 116 105.5 116H22.5C18.3579 116 14.5 112.142 14.5 108V25.5C14.5 23.4565 15.4427 21.3092 16.9826 19.6596C18.5225 18.0099 20.5229 17 22.5 17Z" stroke="url(#paint5_linear)" stroke-width="3"/>
<path d="M22.5 17H105.5C109.642 17 113.5 20.8579 113.5 25V108C113.5 112.142 109.642 116 105.5 116H22.5C18.3579 116 14.5 112.142 14.5 108V25.5C14.5 23.4565 15.4427 21.3092 16.9826 19.6596C18.5225 18.0099 20.5229 17 22.5 17Z" stroke="url(#paint6_linear)" stroke-width="3"/>
<path d="M22.5 17H105.5C109.642 17 113.5 20.8579 113.5 25V108C113.5 112.142 109.642 116 105.5 116H22.5C18.3579 116 14.5 112.142 14.5 108V25.5C14.5 23.4565 15.4427 21.3092 16.9826 19.6596C18.5225 18.0099 20.5229 17 22.5 17Z" stroke="url(#paint7_linear)" stroke-width="3"/>
<path d="M22.5 17H105.5C109.642 17 113.5 20.8579 113.5 25V108C113.5 112.142 109.642 116 105.5 116H22.5C18.3579 116 14.5 112.142 14.5 108V25.5C14.5 23.4565 15.4427 21.3092 16.9826 19.6596C18.5225 18.0099 20.5229 17 22.5 17Z" stroke="url(#paint8_linear)" stroke-opacity="0.8" stroke-width="3"/>
<path opacity="0.3" d="M105.5 15.5H22.5C17.5294 15.5 13 20.5294 13 25.5V108C13 112.971 17.5294 117.5 22.5 117.5H105.5C110.471 117.5 115 112.971 115 108V25C115 20.0294 110.471 15.5 105.5 15.5Z" stroke="url(#paint9_linear)" stroke-width="2" stroke-linecap="round" stroke-linejoin="round"/>
<path opacity="0.5" d="M105.5 15H22.5C16.9772 15 12.5 19.4772 12.5 25V108C12.5 113.523 16.9772 118 22.5 118H105.5C111.023 118 115.5 113.523 115.5 108V25C115.5 19.4772 111.023 15 105.5 15Z" stroke="#273445" stroke-linecap="round" stroke-linejoin="round"/>
<circle cx="64" cy="67" r="29" stroke="black" stroke-opacity="0.15" stroke-width="12"/>
<circle cx="64" cy="67" r="28.5" stroke="black" stroke-opacity="0.07" stroke-width="13"/>
<circle cx="64" cy="66" r="29" stroke="url(#paint10_linear)" stroke-width="12"/>
<circle cx="64" cy="66" r="29" stroke="url(#paint11_linear)" stroke-width="12"/>
<circle cx="64" cy="66" r="29" stroke="url(#paint12_linear)" stroke-width="12"/>
<circle cx="64" cy="66" r="29" stroke="url(#paint13_linear)" stroke-width="12"/>
<circle cx="64" cy="66" r="29" stroke="black" stroke-opacity="0.15" stroke-width="12"/>
<circle opacity="0.5" cx="64" cy="66" r="35" stroke="url(#paint14_linear)" stroke-width="5" stroke-linecap="round" stroke-linejoin="round"/>
<defs>
<radialGradient id="paint0_radial" cx="0" cy="0" r="1" gradientUnits="userSpaceOnUse" gradientTransform="translate(64 117.5) scale(55 6)">
<stop/>
<stop offset="1" stop-opacity="0"/>
</radialGradient>
<radialGradient id="paint1_radial" cx="0" cy="0" r="1" gradientUnits="userSpaceOnUse" gradientTransform="translate(103.77 118) scale(14.2374 2.5)">
<stop stop-color="#181818"/>
<stop offset="1" stop-color="#181818" stop-opacity="0"/>
</radialGradient>
<radialGradient id="paint2_radial" cx="0" cy="0" r="1" gradientUnits="userSpaceOnUse" gradientTransform="translate(24.2305 118) rotate(180) scale(14.2374 2.5)">
<stop stop-color="#181818"/>
<stop offset="1" stop-color="#181818" stop-opacity="0"/>
</radialGradient>
<linearGradient id="paint3_linear" x1="67.0072" y1="120.52" x2="67.0072" y2="115.5" gradientUnits="userSpaceOnUse">
<stop stop-color="#181818" stop-opacity="0"/>
<stop offset="0.5" stop-color="#181818"/>
<stop offset="1" stop-color="#181818" stop-opacity="0"/>
</linearGradient>
<linearGradient id="paint4_linear" x1="62.8716" y1="15.4073" x2="62.8716" y2="117.927" gradientUnits="userSpaceOnUse">
<stop stop-color="#353535"/>
<stop offset="1" stop-color="#1A1A1A"/>
</linearGradient>
<linearGradient id="paint5_linear" x1="28.3" y1="101.471" x2="96.7857" y2="26.4286" gradientUnits="userSpaceOnUse">
<stop stop-color="#A56DE2"/>
<stop offset="1" stop-color="#FAFF00"/>
</linearGradient>
<linearGradient id="paint6_linear" x1="64" y1="3.84286" x2="64" y2="66.5" gradientUnits="userSpaceOnUse">
<stop stop-color="#21E959"/>
<stop offset="0.53125" stop-color="#42FF77" stop-opacity="0.739583"/>
<stop offset="1" stop-color="white" stop-opacity="0"/>
</linearGradient>
<linearGradient id="paint7_linear" x1="-5.94286" y1="66.5" x2="64" y2="62.8571" gradientUnits="userSpaceOnUse">
<stop stop-color="#0085FF"/>
<stop offset="1" stop-color="white" stop-opacity="0"/>
</linearGradient>
<linearGradient id="paint8_linear" x1="103.343" y1="103.657" x2="64" y2="62.8571" gradientUnits="userSpaceOnUse">
<stop stop-color="#FF0000"/>
<stop offset="0.234375" stop-color="#FF3232" stop-opacity="0.6"/>
<stop offset="1" stop-color="white" stop-opacity="0"/>
</linearGradient>
<linearGradient id="paint9_linear" x1="64" y1="14.1216" x2="64" y2="118.878" gradientUnits="userSpaceOnUse">
<stop stop-color="white"/>
<stop offset="0.0631645" stop-color="white" stop-opacity="0.235294"/>
<stop offset="0.950563" stop-color="white" stop-opacity="0.156863"/>
<stop offset="1" stop-color="white" stop-opacity="0.392157"/>
</linearGradient>
<linearGradient id="paint10_linear" x1="39.5" y1="90" x2="86.5" y2="38.5" gradientUnits="userSpaceOnUse">
<stop stop-color="#A56DE2"/>
<stop offset="1" stop-color="#FAFF00"/>
</linearGradient>
<linearGradient id="paint11_linear" x1="64" y1="31" x2="64" y2="66" gradientUnits="userSpaceOnUse">
<stop stop-color="#21E959"/>
<stop offset="0.53125" stop-color="#42FF77" stop-opacity="0.739583"/>
<stop offset="1" stop-color="white" stop-opacity="0"/>
</linearGradient>
<linearGradient id="paint12_linear" x1="31.5" y1="66" x2="64" y2="63.5" gradientUnits="userSpaceOnUse">
<stop stop-color="#0085FF"/>
<stop offset="1" stop-color="white" stop-opacity="0"/>
</linearGradient>
<linearGradient id="paint13_linear" x1="91" y1="91.5" x2="64" y2="63.5" gradientUnits="userSpaceOnUse">
<stop stop-color="#FF0000"/>
<stop offset="0.234375" stop-color="#FF3232" stop-opacity="0.6"/>
<stop offset="1" stop-color="white" stop-opacity="0"/>
</linearGradient>
<linearGradient id="paint14_linear" x1="62.999" y1="29.8276" x2="62.999" y2="101.915" gradientUnits="userSpaceOnUse">
<stop stop-color="white"/>
<stop offset="0.507761" stop-color="white" stop-opacity="0.235294"/>
<stop offset="0.834566" stop-color="white" stop-opacity="0.156863"/>
<stop offset="1" stop-color="white" stop-opacity="0.392157"/>
</linearGradient>
</defs>
</svg>
