<svg width="16" height="16" viewBox="0 0 16 16" fill="none" xmlns="http://www.w3.org/2000/svg">
<path opacity="0.2" d="M14.875 14.6875C14.8747 14.8864 14.1502 15.0771 12.8609 15.2178C11.5717 15.3584 9.82316 15.4374 8 15.4374C6.17684 15.4374 4.42833 15.3584 3.13906 15.2178C1.84978 15.0771 1.12531 14.8864 1.125 14.6875C1.12485 14.589 1.30256 14.4915 1.64799 14.4005C1.99342 14.3094 2.49981 14.2268 3.13823 14.1571C3.77664 14.0874 4.53459 14.0322 5.36878 13.9945C6.20297 13.9568 7.09706 13.9374 8 13.9374C8.90294 13.9374 9.79703 13.9568 10.6312 13.9945C11.4654 14.0322 12.2234 14.0874 12.8618 14.1571C13.5002 14.2268 14.0066 14.3094 14.352 14.4005C14.6974 14.4915 14.8752 14.589 14.875 14.6875V14.6875Z" fill="url(#paint0_radial)"/>
<g opacity="0.4">
<path opacity="0.4" d="M14.75 14.4375H12.9737V15.0625H14.75V14.4375Z" fill="url(#paint1_radial)"/>
<path opacity="0.4" d="M1.24999 15.0625H3.02631V14.4375H1.24999V15.0625Z" fill="url(#paint2_radial)"/>
<path opacity="0.4" d="M12.9737 14.4375H3.02631V15.0625H12.9737V14.4375Z" fill="url(#paint3_linear)"/>
</g>
<path d="M13.1875 1.875H2.8125C2.12214 1.875 1.5625 2.43464 1.5625 3.125V13.5C1.5625 14.1904 2.12214 14.75 2.8125 14.75H13.1875C13.8779 14.75 14.4375 14.1904 14.4375 13.5V3.125C14.4375 2.43464 13.8779 1.875 13.1875 1.875Z" fill="url(#paint4_linear)"/>
<path opacity="0.3" d="M13.1875 1.9375H2.8125C2.19118 1.9375 1.625 2.56618 1.625 3.1875V13.5C1.625 14.1213 2.19118 14.6875 2.8125 14.6875H13.1875C13.8088 14.6875 14.375 14.1213 14.375 13.5V3.125C14.375 2.50368 13.8088 1.9375 13.1875 1.9375Z" stroke="url(#paint5_linear)" stroke-linecap="round" stroke-linejoin="round"/>
<path opacity="0.5" d="M13.1875 1.875H2.8125C2.12214 1.875 1.5625 2.43464 1.5625 3.125V13.5C1.5625 14.1904 2.12214 14.75 2.8125 14.75H13.1875C13.8779 14.75 14.4375 14.1904 14.4375 13.5V3.125C14.4375 2.43464 13.8779 1.875 13.1875 1.875Z" stroke="#273445" stroke-linecap="round" stroke-linejoin="round"/>
<circle cx="8" cy="8.375" r="2.875" stroke="black" stroke-opacity="0.15" stroke-width="3"/>
<circle cx="8" cy="8.375" r="2.875" stroke="black" stroke-opacity="0.07" stroke-width="3"/>
<circle cx="8" cy="8.25" r="2.875" stroke="url(#paint6_linear)" stroke-width="3"/>
<circle cx="8" cy="8.25" r="2.875" stroke="url(#paint7_linear)" stroke-width="3"/>
<circle cx="8" cy="8.25" r="2.875" stroke="url(#paint8_linear)" stroke-width="3"/>
<circle cx="8" cy="8.25" r="2.875" stroke="url(#paint9_linear)" stroke-width="3"/>
<circle cx="8" cy="8.25" r="2.875" stroke="black" stroke-opacity="0.15" stroke-width="3"/>
<circle opacity="0.5" cx="8" cy="8.25" r="4.375" stroke="url(#paint10_linear)" stroke-width="2" stroke-linecap="round" stroke-linejoin="round"/>
<defs>
<radialGradient id="paint0_radial" cx="0" cy="0" r="1" gradientUnits="userSpaceOnUse" gradientTransform="translate(8 14.6875) scale(6.875 0.75)">
<stop/>
<stop offset="1" stop-opacity="0"/>
</radialGradient>
<radialGradient id="paint1_radial" cx="0" cy="0" r="1" gradientUnits="userSpaceOnUse" gradientTransform="translate(12.9712 14.75) scale(1.77968 0.3125)">
<stop stop-color="#181818"/>
<stop offset="1" stop-color="#181818" stop-opacity="0"/>
</radialGradient>
<radialGradient id="paint2_radial" cx="0" cy="0" r="1" gradientUnits="userSpaceOnUse" gradientTransform="translate(3.0288 14.75) rotate(180) scale(1.77968 0.3125)">
<stop stop-color="#181818"/>
<stop offset="1" stop-color="#181818" stop-opacity="0"/>
</radialGradient>
<linearGradient id="paint3_linear" x1="8.37589" y1="15.065" x2="8.37589" y2="14.4375" gradientUnits="userSpaceOnUse">
<stop stop-color="#181818" stop-opacity="0"/>
<stop offset="0.5" stop-color="#181818"/>
<stop offset="1" stop-color="#181818" stop-opacity="0"/>
</linearGradient>
<linearGradient id="paint4_linear" x1="7.85895" y1="1.92591" x2="7.85895" y2="14.7409" gradientUnits="userSpaceOnUse">
<stop stop-color="#353535"/>
<stop offset="1" stop-color="#1A1A1A"/>
</linearGradient>
<linearGradient id="paint5_linear" x1="8" y1="1.7652" x2="8" y2="14.8598" gradientUnits="userSpaceOnUse">
<stop stop-color="white"/>
<stop offset="0.0631645" stop-color="white" stop-opacity="0.235294"/>
<stop offset="0.950563" stop-color="white" stop-opacity="0.156863"/>
<stop offset="1" stop-color="white" stop-opacity="0.392157"/>
</linearGradient>
<linearGradient id="paint6_linear" x1="4.9375" y1="11.25" x2="10.8125" y2="4.8125" gradientUnits="userSpaceOnUse">
<stop stop-color="#A56DE2"/>
<stop offset="1" stop-color="#FAFF00"/>
</linearGradient>
<linearGradient id="paint7_linear" x1="8" y1="3.875" x2="8" y2="8.25" gradientUnits="userSpaceOnUse">
<stop stop-color="#21E959"/>
<stop offset="0.53125" stop-color="#42FF77" stop-opacity="0.739583"/>
<stop offset="1" stop-color="white" stop-opacity="0"/>
</linearGradient>
<linearGradient id="paint8_linear" x1="3.9375" y1="8.25" x2="8" y2="7.9375" gradientUnits="userSpaceOnUse">
<stop stop-color="#0085FF"/>
<stop offset="1" stop-color="white" stop-opacity="0"/>
</linearGradient>
<linearGradient id="paint9_linear" x1="11.375" y1="11.4375" x2="8" y2="7.9375" gradientUnits="userSpaceOnUse">
<stop stop-color="#FF0000"/>
<stop offset="0.234375" stop-color="#FF3232" stop-opacity="0.6"/>
<stop offset="1" stop-color="white" stop-opacity="0"/>
</linearGradient>
<linearGradient id="paint10_linear" x1="7.87487" y1="3.72845" x2="7.87487" y2="12.7394" gradientUnits="userSpaceOnUse">
<stop stop-color="white"/>
<stop offset="0.507761" stop-color="white" stop-opacity="0.235294"/>
<stop offset="0.834566" stop-color="white" stop-opacity="0.156863"/>
<stop offset="1" stop-color="white" stop-opacity="0.392157"/>
</linearGradient>
</defs>
</svg>
