<svg width="24" height="24" viewBox="0 0 24 24" fill="none" xmlns="http://www.w3.org/2000/svg">
<path opacity="0.2" d="M22.3125 22.0313C22.312 22.3296 21.2253 22.6157 19.2914 22.8266C17.3575 23.0376 14.7347 23.1561 12 23.1561C9.26526 23.1561 6.6425 23.0376 4.70858 22.8266C2.77466 22.6157 1.68797 22.3296 1.6875 22.0313C1.68727 21.8835 1.95384 21.7372 2.47199 21.6007C2.99014 21.4642 3.74971 21.3401 4.70734 21.2356C5.66497 21.1312 6.80189 21.0483 8.05317 20.9917C9.30446 20.9352 10.6456 20.9061 12 20.9061C13.3544 20.9061 14.6955 20.9352 15.9468 20.9917C17.1981 21.0483 18.335 21.1312 19.2927 21.2356C20.2503 21.3401 21.0099 21.4642 21.528 21.6007C22.0462 21.7372 22.3127 21.8835 22.3125 22.0313V22.0313Z" fill="url(#paint0_radial)"/>
<g opacity="0.4">
<path opacity="0.4" d="M22.125 21.6562H19.4605V22.5938H22.125V21.6562Z" fill="url(#paint1_radial)"/>
<path opacity="0.4" d="M1.87502 22.5938H4.53949V21.6562H1.87502V22.5938Z" fill="url(#paint2_radial)"/>
<path opacity="0.4" d="M19.4605 21.6562H4.53949V22.5938H19.4605V21.6562Z" fill="url(#paint3_linear)"/>
</g>
<path d="M19.7812 2.8125H4.21875C3.18322 2.8125 2.34375 3.65197 2.34375 4.6875V20.25C2.34375 21.2855 3.18322 22.125 4.21875 22.125H19.7812C20.8168 22.125 21.6562 21.2855 21.6562 20.25V4.6875C21.6562 3.65197 20.8168 2.8125 19.7812 2.8125Z" fill="url(#paint4_linear)"/>
<path d="M4.21875 3.40625H19.7812C20.4371 3.40625 21.0625 4.03166 21.0625 4.6875V20.25C21.0625 20.9058 20.4371 21.5312 19.7812 21.5312H4.21875C3.56291 21.5312 2.9375 20.9058 2.9375 20.25V4.78125C2.9375 4.46251 3.08659 4.11134 3.34414 3.83544C3.6017 3.55952 3.92216 3.40625 4.21875 3.40625Z" stroke="url(#paint5_linear)"/>
<path d="M4.21875 3.40625H19.7812C20.4371 3.40625 21.0625 4.03166 21.0625 4.6875V20.25C21.0625 20.9058 20.4371 21.5312 19.7812 21.5312H4.21875C3.56291 21.5312 2.9375 20.9058 2.9375 20.25V4.78125C2.9375 4.46251 3.08659 4.11134 3.34414 3.83544C3.6017 3.55952 3.92216 3.40625 4.21875 3.40625Z" stroke="url(#paint6_linear)"/>
<path d="M4.21875 3.40625H19.7812C20.4371 3.40625 21.0625 4.03166 21.0625 4.6875V20.25C21.0625 20.9058 20.4371 21.5312 19.7812 21.5312H4.21875C3.56291 21.5312 2.9375 20.9058 2.9375 20.25V4.78125C2.9375 4.46251 3.08659 4.11134 3.34414 3.83544C3.6017 3.55952 3.92216 3.40625 4.21875 3.40625Z" stroke="url(#paint7_linear)"/>
<path d="M4.21875 3.40625H19.7812C20.4371 3.40625 21.0625 4.03166 21.0625 4.6875V20.25C21.0625 20.9058 20.4371 21.5312 19.7812 21.5312H4.21875C3.56291 21.5312 2.9375 20.9058 2.9375 20.25V4.78125C2.9375 4.46251 3.08659 4.11134 3.34414 3.83544C3.6017 3.55952 3.92216 3.40625 4.21875 3.40625Z" stroke="url(#paint8_linear)" stroke-opacity="0.8"/>
<path opacity="0.3" d="M19.7812 2.90625H4.21875C3.28677 2.90625 2.4375 3.84927 2.4375 4.78125V20.25C2.4375 21.182 3.28677 22.0312 4.21875 22.0312H19.7812C20.7132 22.0312 21.5625 21.182 21.5625 20.25V4.6875C21.5625 3.75552 20.7132 2.90625 19.7812 2.90625Z" stroke="url(#paint9_linear)" stroke-linecap="round" stroke-linejoin="round"/>
<path opacity="0.5" d="M19.7812 2.8125H4.21875C3.18322 2.8125 2.34375 3.65197 2.34375 4.6875V20.25C2.34375 21.2855 3.18322 22.125 4.21875 22.125H19.7812C20.8168 22.125 21.6562 21.2855 21.6562 20.25V4.6875C21.6562 3.65197 20.8168 2.8125 19.7812 2.8125Z" stroke="#273445" stroke-linecap="round" stroke-linejoin="round"/>
<circle cx="12" cy="12.5625" r="5.0625" stroke="black" stroke-opacity="0.15" stroke-width="3"/>
<circle cx="12" cy="12.5625" r="5.0625" stroke="black" stroke-opacity="0.07" stroke-width="3"/>
<circle cx="12" cy="12.375" r="5.0625" stroke="url(#paint10_linear)" stroke-width="3"/>
<circle cx="12" cy="12.375" r="5.0625" stroke="url(#paint11_linear)" stroke-width="3"/>
<circle cx="12" cy="12.375" r="5.0625" stroke="url(#paint12_linear)" stroke-width="3"/>
<circle cx="12" cy="12.375" r="5.0625" stroke="url(#paint13_linear)" stroke-width="3"/>
<circle cx="12" cy="12.375" r="5.0625" stroke="black" stroke-opacity="0.15" stroke-width="3"/>
<circle opacity="0.5" cx="12" cy="12.375" r="6.5625" stroke="url(#paint14_linear)" stroke-width="2" stroke-linecap="round" stroke-linejoin="round"/>
<defs>
<radialGradient id="paint0_radial" cx="0" cy="0" r="1" gradientUnits="userSpaceOnUse" gradientTransform="translate(12 22.0313) scale(10.3125 1.125)">
<stop/>
<stop offset="1" stop-opacity="0"/>
</radialGradient>
<radialGradient id="paint1_radial" cx="0" cy="0" r="1" gradientUnits="userSpaceOnUse" gradientTransform="translate(19.4568 22.125) scale(2.66952 0.46875)">
<stop stop-color="#181818"/>
<stop offset="1" stop-color="#181818" stop-opacity="0"/>
</radialGradient>
<radialGradient id="paint2_radial" cx="0" cy="0" r="1" gradientUnits="userSpaceOnUse" gradientTransform="translate(4.54323 22.125) rotate(180) scale(2.66952 0.46875)">
<stop stop-color="#181818"/>
<stop offset="1" stop-color="#181818" stop-opacity="0"/>
</radialGradient>
<linearGradient id="paint3_linear" x1="12.5639" y1="22.5975" x2="12.5639" y2="21.6562" gradientUnits="userSpaceOnUse">
<stop stop-color="#181818" stop-opacity="0"/>
<stop offset="0.5" stop-color="#181818"/>
<stop offset="1" stop-color="#181818" stop-opacity="0"/>
</linearGradient>
<linearGradient id="paint4_linear" x1="11.7884" y1="2.88887" x2="11.7884" y2="22.1113" gradientUnits="userSpaceOnUse">
<stop stop-color="#353535"/>
<stop offset="1" stop-color="#1A1A1A"/>
</linearGradient>
<linearGradient id="paint5_linear" x1="5.30625" y1="19.0259" x2="18.1473" y2="4.95536" gradientUnits="userSpaceOnUse">
<stop stop-color="#A56DE2"/>
<stop offset="1" stop-color="#FAFF00"/>
</linearGradient>
<linearGradient id="paint6_linear" x1="12" y1="0.720536" x2="12" y2="12.4688" gradientUnits="userSpaceOnUse">
<stop stop-color="#21E959"/>
<stop offset="0.53125" stop-color="#42FF77" stop-opacity="0.739583"/>
<stop offset="1" stop-color="white" stop-opacity="0"/>
</linearGradient>
<linearGradient id="paint7_linear" x1="-1.11429" y1="12.4688" x2="12" y2="11.7857" gradientUnits="userSpaceOnUse">
<stop stop-color="#0085FF"/>
<stop offset="1" stop-color="white" stop-opacity="0"/>
</linearGradient>
<linearGradient id="paint8_linear" x1="19.3768" y1="19.4357" x2="12" y2="11.7857" gradientUnits="userSpaceOnUse">
<stop stop-color="#FF0000"/>
<stop offset="0.234375" stop-color="#FF3232" stop-opacity="0.6"/>
<stop offset="1" stop-color="white" stop-opacity="0"/>
</linearGradient>
<linearGradient id="paint9_linear" x1="12" y1="2.6478" x2="12" y2="22.2897" gradientUnits="userSpaceOnUse">
<stop stop-color="white"/>
<stop offset="0.0631645" stop-color="white" stop-opacity="0.235294"/>
<stop offset="0.950563" stop-color="white" stop-opacity="0.156863"/>
<stop offset="1" stop-color="white" stop-opacity="0.392157"/>
</linearGradient>
<linearGradient id="paint10_linear" x1="7.40625" y1="16.875" x2="16.2188" y2="7.21875" gradientUnits="userSpaceOnUse">
<stop stop-color="#A56DE2"/>
<stop offset="1" stop-color="#FAFF00"/>
</linearGradient>
<linearGradient id="paint11_linear" x1="12" y1="5.8125" x2="12" y2="12.375" gradientUnits="userSpaceOnUse">
<stop stop-color="#21E959"/>
<stop offset="0.53125" stop-color="#42FF77" stop-opacity="0.739583"/>
<stop offset="1" stop-color="white" stop-opacity="0"/>
</linearGradient>
<linearGradient id="paint12_linear" x1="5.90625" y1="12.375" x2="12" y2="11.9063" gradientUnits="userSpaceOnUse">
<stop stop-color="#0085FF"/>
<stop offset="1" stop-color="white" stop-opacity="0"/>
</linearGradient>
<linearGradient id="paint13_linear" x1="17.0625" y1="17.1562" x2="12" y2="11.9062" gradientUnits="userSpaceOnUse">
<stop stop-color="#FF0000"/>
<stop offset="0.234375" stop-color="#FF3232" stop-opacity="0.6"/>
<stop offset="1" stop-color="white" stop-opacity="0"/>
</linearGradient>
<linearGradient id="paint14_linear" x1="11.8123" y1="5.59268" x2="11.8123" y2="19.109" gradientUnits="userSpaceOnUse">
<stop stop-color="white"/>
<stop offset="0.507761" stop-color="white" stop-opacity="0.235294"/>
<stop offset="0.834566" stop-color="white" stop-opacity="0.156863"/>
<stop offset="1" stop-color="white" stop-opacity="0.392157"/>
</linearGradient>
</defs>
</svg>
