<svg width="32" height="32" viewBox="0 0 32 32" fill="none" xmlns="http://www.w3.org/2000/svg">
<path opacity="0.2" d="M29.75 29.375C29.7494 29.7728 28.3004 30.1543 25.7219 30.4355C23.1433 30.7168 19.6463 30.8748 16 30.8748C12.3537 30.8748 8.85667 30.7168 6.27811 30.4355C3.69955 30.1543 2.25062 29.7728 2.25 29.375C2.24969 29.178 2.60512 28.9829 3.29598 28.8009C3.98685 28.6189 4.99962 28.4535 6.27645 28.3142C7.55329 28.1749 9.06918 28.0644 10.7376 27.989C12.4059 27.9136 14.1941 27.8748 16 27.8748C17.8059 27.8748 19.5941 27.9136 21.2624 27.989C22.9308 28.0644 24.4467 28.1749 25.7235 28.3142C27.0004 28.4535 28.0132 28.6189 28.704 28.8009C29.3949 28.9829 29.7503 29.178 29.75 29.375V29.375Z" fill="url(#paint0_radial)"/>
<g opacity="0.4">
<path opacity="0.4" d="M29.5 28.875H25.9474V30.125H29.5V28.875Z" fill="url(#paint1_radial)"/>
<path opacity="0.4" d="M2.49998 30.125H6.05261V28.875H2.49998V30.125Z" fill="url(#paint2_radial)"/>
<path opacity="0.4" d="M25.9473 28.875H6.05261V30.125H25.9473V28.875Z" fill="url(#paint3_linear)"/>
</g>
<path d="M26.375 3.75H5.625C4.24429 3.75 3.125 4.86929 3.125 6.25V27C3.125 28.3807 4.24429 29.5 5.625 29.5H26.375C27.7557 29.5 28.875 28.3807 28.875 27V6.25C28.875 4.86929 27.7557 3.75 26.375 3.75Z" fill="url(#paint4_linear)"/>
<path d="M5.625 4.375H26.375C27.3415 4.375 28.25 5.2835 28.25 6.25V27C28.25 27.9665 27.3415 28.875 26.375 28.875H5.625C4.6585 28.875 3.75 27.9665 3.75 27V6.375C3.75 5.90093 3.96987 5.39351 4.33701 5.00019C4.70418 4.60685 5.17308 4.375 5.625 4.375Z" stroke="url(#paint5_linear)"/>
<path d="M5.625 4.375H26.375C27.3415 4.375 28.25 5.2835 28.25 6.25V27C28.25 27.9665 27.3415 28.875 26.375 28.875H5.625C4.6585 28.875 3.75 27.9665 3.75 27V6.375C3.75 5.90093 3.96987 5.39351 4.33701 5.00019C4.70418 4.60685 5.17308 4.375 5.625 4.375Z" stroke="url(#paint6_linear)"/>
<path d="M5.625 4.375H26.375C27.3415 4.375 28.25 5.2835 28.25 6.25V27C28.25 27.9665 27.3415 28.875 26.375 28.875H5.625C4.6585 28.875 3.75 27.9665 3.75 27V6.375C3.75 5.90093 3.96987 5.39351 4.33701 5.00019C4.70418 4.60685 5.17308 4.375 5.625 4.375Z" stroke="url(#paint7_linear)"/>
<path d="M5.625 4.375H26.375C27.3415 4.375 28.25 5.2835 28.25 6.25V27C28.25 27.9665 27.3415 28.875 26.375 28.875H5.625C4.6585 28.875 3.75 27.9665 3.75 27V6.375C3.75 5.90093 3.96987 5.39351 4.33701 5.00019C4.70418 4.60685 5.17308 4.375 5.625 4.375Z" stroke="url(#paint8_linear)" stroke-opacity="0.8"/>
<path opacity="0.3" d="M26.375 3.875H5.625C4.38236 3.875 3.25 5.13236 3.25 6.375V27C3.25 28.2426 4.38236 29.375 5.625 29.375H26.375C27.6176 29.375 28.75 28.2426 28.75 27V6.25C28.75 5.00736 27.6176 3.875 26.375 3.875Z" stroke="url(#paint9_linear)" stroke-linecap="round" stroke-linejoin="round"/>
<path opacity="0.5" d="M26.375 3.75H5.625C4.24429 3.75 3.125 4.86929 3.125 6.25V27C3.125 28.3807 4.24429 29.5 5.625 29.5H26.375C27.7557 29.5 28.875 28.3807 28.875 27V6.25C28.875 4.86929 27.7557 3.75 26.375 3.75Z" stroke="#273445" stroke-linecap="round" stroke-linejoin="round"/>
<circle cx="16" cy="16.75" r="7.25" stroke="black" stroke-opacity="0.15" stroke-width="3"/>
<circle cx="16" cy="16.75" r="7.25" stroke="black" stroke-opacity="0.07" stroke-width="3"/>
<circle cx="16" cy="16.5" r="6.75" stroke="url(#paint10_linear)" stroke-width="4"/>
<circle cx="16" cy="16.5" r="6.75" stroke="url(#paint11_linear)" stroke-width="4"/>
<circle cx="16" cy="16.5" r="6.75" stroke="url(#paint12_linear)" stroke-width="4"/>
<circle cx="16" cy="16.5" r="6.75" stroke="url(#paint13_linear)" stroke-width="4"/>
<circle cx="16" cy="16.5" r="6.75" stroke="black" stroke-opacity="0.15" stroke-width="4"/>
<circle opacity="0.5" cx="16" cy="16.5" r="8.75" stroke="url(#paint14_linear)" stroke-width="2" stroke-linecap="round" stroke-linejoin="round"/>
<defs>
<radialGradient id="paint0_radial" cx="0" cy="0" r="1" gradientUnits="userSpaceOnUse" gradientTransform="translate(16 29.375) scale(13.75 1.5)">
<stop/>
<stop offset="1" stop-opacity="0"/>
</radialGradient>
<radialGradient id="paint1_radial" cx="0" cy="0" r="1" gradientUnits="userSpaceOnUse" gradientTransform="translate(25.9424 29.5) scale(3.55935 0.625)">
<stop stop-color="#181818"/>
<stop offset="1" stop-color="#181818" stop-opacity="0"/>
</radialGradient>
<radialGradient id="paint2_radial" cx="0" cy="0" r="1" gradientUnits="userSpaceOnUse" gradientTransform="translate(6.0576 29.5) rotate(180) scale(3.55935 0.625)">
<stop stop-color="#181818"/>
<stop offset="1" stop-color="#181818" stop-opacity="0"/>
</radialGradient>
<linearGradient id="paint3_linear" x1="16.7518" y1="30.13" x2="16.7518" y2="28.8749" gradientUnits="userSpaceOnUse">
<stop stop-color="#181818" stop-opacity="0"/>
<stop offset="0.5" stop-color="#181818"/>
<stop offset="1" stop-color="#181818" stop-opacity="0"/>
</linearGradient>
<linearGradient id="paint4_linear" x1="15.7179" y1="3.85183" x2="15.7179" y2="29.4817" gradientUnits="userSpaceOnUse">
<stop stop-color="#353535"/>
<stop offset="1" stop-color="#1A1A1A"/>
</linearGradient>
<linearGradient id="paint5_linear" x1="7.075" y1="25.3679" x2="24.1964" y2="6.60714" gradientUnits="userSpaceOnUse">
<stop stop-color="#A56DE2"/>
<stop offset="1" stop-color="#FAFF00"/>
</linearGradient>
<linearGradient id="paint6_linear" x1="16" y1="0.960714" x2="16" y2="16.625" gradientUnits="userSpaceOnUse">
<stop stop-color="#21E959"/>
<stop offset="0.53125" stop-color="#42FF77" stop-opacity="0.739583"/>
<stop offset="1" stop-color="white" stop-opacity="0"/>
</linearGradient>
<linearGradient id="paint7_linear" x1="-1.48571" y1="16.625" x2="16" y2="15.7143" gradientUnits="userSpaceOnUse">
<stop stop-color="#0085FF"/>
<stop offset="1" stop-color="white" stop-opacity="0"/>
</linearGradient>
<linearGradient id="paint8_linear" x1="25.8357" y1="25.9143" x2="16" y2="15.7143" gradientUnits="userSpaceOnUse">
<stop stop-color="#FF0000"/>
<stop offset="0.234375" stop-color="#FF3232" stop-opacity="0.6"/>
<stop offset="1" stop-color="white" stop-opacity="0"/>
</linearGradient>
<linearGradient id="paint9_linear" x1="16" y1="3.5304" x2="16" y2="29.7196" gradientUnits="userSpaceOnUse">
<stop stop-color="white"/>
<stop offset="0.0631645" stop-color="white" stop-opacity="0.235294"/>
<stop offset="0.950563" stop-color="white" stop-opacity="0.156863"/>
<stop offset="1" stop-color="white" stop-opacity="0.392157"/>
</linearGradient>
<linearGradient id="paint10_linear" x1="9.875" y1="22.5" x2="21.625" y2="9.625" gradientUnits="userSpaceOnUse">
<stop stop-color="#A56DE2"/>
<stop offset="1" stop-color="#FAFF00"/>
</linearGradient>
<linearGradient id="paint11_linear" x1="16" y1="7.75" x2="16" y2="16.5" gradientUnits="userSpaceOnUse">
<stop stop-color="#21E959"/>
<stop offset="0.53125" stop-color="#42FF77" stop-opacity="0.739583"/>
<stop offset="1" stop-color="white" stop-opacity="0"/>
</linearGradient>
<linearGradient id="paint12_linear" x1="7.875" y1="16.5" x2="16" y2="15.875" gradientUnits="userSpaceOnUse">
<stop stop-color="#0085FF"/>
<stop offset="1" stop-color="white" stop-opacity="0"/>
</linearGradient>
<linearGradient id="paint13_linear" x1="22.75" y1="22.875" x2="16" y2="15.875" gradientUnits="userSpaceOnUse">
<stop stop-color="#FF0000"/>
<stop offset="0.234375" stop-color="#FF3232" stop-opacity="0.6"/>
<stop offset="1" stop-color="white" stop-opacity="0"/>
</linearGradient>
<linearGradient id="paint14_linear" x1="15.7497" y1="7.45691" x2="15.7497" y2="25.4787" gradientUnits="userSpaceOnUse">
<stop stop-color="white"/>
<stop offset="0.507761" stop-color="white" stop-opacity="0.235294"/>
<stop offset="0.834566" stop-color="white" stop-opacity="0.156863"/>
<stop offset="1" stop-color="white" stop-opacity="0.392157"/>
</linearGradient>
</defs>
</svg>
