<svg width="48" height="48" viewBox="0 0 48 48" fill="none" xmlns="http://www.w3.org/2000/svg">
<path opacity="0.2" d="M44.625 44.0625C44.6241 44.6592 42.4507 45.2314 38.5828 45.6533C34.715 46.0751 29.4695 46.3121 24 46.3121C18.5305 46.3121 13.285 46.0751 9.41717 45.6533C5.54933 45.2314 3.37593 44.6592 3.375 44.0625C3.37454 43.767 3.90768 43.4744 4.94397 43.2014C5.98027 42.9283 7.49942 42.6803 9.41468 42.4713C11.3299 42.2623 13.6038 42.0965 16.1063 41.9834C18.6089 41.8703 21.2912 41.8121 24 41.8121C26.7088 41.8121 29.3911 41.8703 31.8937 41.9834C34.3962 42.0965 36.6701 42.2623 38.5853 42.4713C40.5006 42.6803 42.0197 42.9283 43.056 43.2014C44.0923 43.4744 44.6255 43.767 44.625 44.0625V44.0625Z" fill="url(#paint0_radial)"/>
<g opacity="0.4">
<path opacity="0.4" d="M44.25 43.3125H38.921V45.1875H44.25V43.3125Z" fill="url(#paint1_radial)"/>
<path opacity="0.4" d="M3.74997 45.1875H9.07892V43.3125H3.74997V45.1875Z" fill="url(#paint2_radial)"/>
<path opacity="0.4" d="M38.921 43.3125H9.07892V45.1875H38.921V43.3125Z" fill="url(#paint3_linear)"/>
</g>
<path d="M39.5625 5.625H8.4375C6.36643 5.625 4.6875 7.30393 4.6875 9.375V40.5C4.6875 42.5711 6.36643 44.25 8.4375 44.25H39.5625C41.6336 44.25 43.3125 42.5711 43.3125 40.5V9.375C43.3125 7.30393 41.6336 5.625 39.5625 5.625Z" fill="url(#paint4_linear)"/>
<path d="M8.4375 6.8125H39.5625C40.8742 6.8125 42.125 8.06332 42.125 9.375V40.5C42.125 41.8117 40.8742 43.0625 39.5625 43.0625H8.4375C7.12582 43.0625 5.875 41.8117 5.875 40.5V9.5625C5.875 8.92501 6.17319 8.22269 6.68827 7.67088C7.2034 7.11904 7.84431 6.8125 8.4375 6.8125Z" stroke="url(#paint5_linear)" stroke-width="2"/>
<path d="M8.4375 6.8125H39.5625C40.8742 6.8125 42.125 8.06332 42.125 9.375V40.5C42.125 41.8117 40.8742 43.0625 39.5625 43.0625H8.4375C7.12582 43.0625 5.875 41.8117 5.875 40.5V9.5625C5.875 8.92501 6.17319 8.22269 6.68827 7.67088C7.2034 7.11904 7.84431 6.8125 8.4375 6.8125Z" stroke="url(#paint6_linear)" stroke-width="2"/>
<path d="M8.4375 6.8125H39.5625C40.8742 6.8125 42.125 8.06332 42.125 9.375V40.5C42.125 41.8117 40.8742 43.0625 39.5625 43.0625H8.4375C7.12582 43.0625 5.875 41.8117 5.875 40.5V9.5625C5.875 8.92501 6.17319 8.22269 6.68827 7.67088C7.2034 7.11904 7.84431 6.8125 8.4375 6.8125Z" stroke="url(#paint7_linear)" stroke-width="2"/>
<path d="M8.4375 6.8125H39.5625C40.8742 6.8125 42.125 8.06332 42.125 9.375V40.5C42.125 41.8117 40.8742 43.0625 39.5625 43.0625H8.4375C7.12582 43.0625 5.875 41.8117 5.875 40.5V9.5625C5.875 8.92501 6.17319 8.22269 6.68827 7.67088C7.2034 7.11904 7.84431 6.8125 8.4375 6.8125Z" stroke="url(#paint8_linear)" stroke-opacity="0.8" stroke-width="2"/>
<path opacity="0.3" d="M39.5625 5.8125H8.4375C6.57354 5.8125 4.875 7.69854 4.875 9.5625V40.5C4.875 42.364 6.57354 44.0625 8.4375 44.0625H39.5625C41.4265 44.0625 43.125 42.364 43.125 40.5V9.375C43.125 7.51104 41.4265 5.8125 39.5625 5.8125Z" stroke="url(#paint9_linear)" stroke-linecap="round" stroke-linejoin="round"/>
<path opacity="0.5" d="M39.5625 5.625H8.4375C6.36643 5.625 4.6875 7.30393 4.6875 9.375V40.5C4.6875 42.5711 6.36643 44.25 8.4375 44.25H39.5625C41.6336 44.25 43.3125 42.5711 43.3125 40.5V9.375C43.3125 7.30393 41.6336 5.625 39.5625 5.625Z" stroke="#273445" stroke-linecap="round" stroke-linejoin="round"/>
<circle cx="24" cy="25.125" r="10.625" stroke="black" stroke-opacity="0.15" stroke-width="5"/>
<circle cx="24" cy="25.125" r="10.625" stroke="black" stroke-opacity="0.07" stroke-width="5"/>
<circle cx="24" cy="24.75" r="10.625" stroke="url(#paint10_linear)" stroke-width="5"/>
<circle cx="24" cy="24.75" r="10.625" stroke="url(#paint11_linear)" stroke-width="5"/>
<circle cx="24" cy="24.75" r="10.625" stroke="url(#paint12_linear)" stroke-width="5"/>
<circle cx="24" cy="24.75" r="10.625" stroke="url(#paint13_linear)" stroke-width="5"/>
<circle cx="24" cy="24.75" r="10.625" stroke="black" stroke-opacity="0.15" stroke-width="5"/>
<circle opacity="0.5" cx="24" cy="24.75" r="13.125" stroke="url(#paint14_linear)" stroke-width="2" stroke-linecap="round" stroke-linejoin="round"/>
<defs>
<radialGradient id="paint0_radial" cx="0" cy="0" r="1" gradientUnits="userSpaceOnUse" gradientTransform="translate(24 44.0625) scale(20.625 2.25)">
<stop/>
<stop offset="1" stop-opacity="0"/>
</radialGradient>
<radialGradient id="paint1_radial" cx="0" cy="0" r="1" gradientUnits="userSpaceOnUse" gradientTransform="translate(38.9135 44.25) scale(5.33903 0.9375)">
<stop stop-color="#181818"/>
<stop offset="1" stop-color="#181818" stop-opacity="0"/>
</radialGradient>
<radialGradient id="paint2_radial" cx="0" cy="0" r="1" gradientUnits="userSpaceOnUse" gradientTransform="translate(9.0864 44.25) rotate(180) scale(5.33903 0.9375)">
<stop stop-color="#181818"/>
<stop offset="1" stop-color="#181818" stop-opacity="0"/>
</radialGradient>
<linearGradient id="paint3_linear" x1="25.1277" y1="45.1949" x2="25.1277" y2="43.3124" gradientUnits="userSpaceOnUse">
<stop stop-color="#181818" stop-opacity="0"/>
<stop offset="0.5" stop-color="#181818"/>
<stop offset="1" stop-color="#181818" stop-opacity="0"/>
</linearGradient>
<linearGradient id="paint4_linear" x1="23.5769" y1="5.77774" x2="23.5769" y2="44.2226" gradientUnits="userSpaceOnUse">
<stop stop-color="#353535"/>
<stop offset="1" stop-color="#1A1A1A"/>
</linearGradient>
<linearGradient id="paint5_linear" x1="10.6125" y1="38.0518" x2="36.2946" y2="9.91071" gradientUnits="userSpaceOnUse">
<stop stop-color="#A56DE2"/>
<stop offset="1" stop-color="#FAFF00"/>
</linearGradient>
<linearGradient id="paint6_linear" x1="24" y1="1.44107" x2="24" y2="24.9375" gradientUnits="userSpaceOnUse">
<stop stop-color="#21E959"/>
<stop offset="0.53125" stop-color="#42FF77" stop-opacity="0.739583"/>
<stop offset="1" stop-color="white" stop-opacity="0"/>
</linearGradient>
<linearGradient id="paint7_linear" x1="-2.22857" y1="24.9375" x2="24" y2="23.5714" gradientUnits="userSpaceOnUse">
<stop stop-color="#0085FF"/>
<stop offset="1" stop-color="white" stop-opacity="0"/>
</linearGradient>
<linearGradient id="paint8_linear" x1="38.7536" y1="38.8714" x2="24" y2="23.5714" gradientUnits="userSpaceOnUse">
<stop stop-color="#FF0000"/>
<stop offset="0.234375" stop-color="#FF3232" stop-opacity="0.6"/>
<stop offset="1" stop-color="white" stop-opacity="0"/>
</linearGradient>
<linearGradient id="paint9_linear" x1="24" y1="5.29561" x2="24" y2="44.5794" gradientUnits="userSpaceOnUse">
<stop stop-color="white"/>
<stop offset="0.0631645" stop-color="white" stop-opacity="0.235294"/>
<stop offset="0.950563" stop-color="white" stop-opacity="0.156863"/>
<stop offset="1" stop-color="white" stop-opacity="0.392157"/>
</linearGradient>
<linearGradient id="paint10_linear" x1="14.8125" y1="33.75" x2="32.4375" y2="14.4375" gradientUnits="userSpaceOnUse">
<stop stop-color="#A56DE2"/>
<stop offset="1" stop-color="#FAFF00"/>
</linearGradient>
<linearGradient id="paint11_linear" x1="24" y1="11.625" x2="24" y2="24.75" gradientUnits="userSpaceOnUse">
<stop stop-color="#21E959"/>
<stop offset="0.53125" stop-color="#42FF77" stop-opacity="0.739583"/>
<stop offset="1" stop-color="white" stop-opacity="0"/>
</linearGradient>
<linearGradient id="paint12_linear" x1="11.8125" y1="24.75" x2="24" y2="23.8125" gradientUnits="userSpaceOnUse">
<stop stop-color="#0085FF"/>
<stop offset="1" stop-color="white" stop-opacity="0"/>
</linearGradient>
<linearGradient id="paint13_linear" x1="34.125" y1="34.3125" x2="24" y2="23.8125" gradientUnits="userSpaceOnUse">
<stop stop-color="#FF0000"/>
<stop offset="0.234375" stop-color="#FF3232" stop-opacity="0.6"/>
<stop offset="1" stop-color="white" stop-opacity="0"/>
</linearGradient>
<linearGradient id="paint14_linear" x1="23.6246" y1="11.1854" x2="23.6246" y2="38.2181" gradientUnits="userSpaceOnUse">
<stop stop-color="white"/>
<stop offset="0.507761" stop-color="white" stop-opacity="0.235294"/>
<stop offset="0.834566" stop-color="white" stop-opacity="0.156863"/>
<stop offset="1" stop-color="white" stop-opacity="0.392157"/>
</linearGradient>
</defs>
</svg>
