<svg width="64" height="64" viewBox="0 0 64 64" fill="none" xmlns="http://www.w3.org/2000/svg">
<path opacity="0.2" d="M59.5 58.75C59.4988 59.5456 56.6009 60.3085 51.4438 60.871C46.2867 61.4335 39.2926 61.7495 32 61.7495C24.7074 61.7495 17.7133 61.4335 12.5562 60.871C7.39911 60.3085 4.50124 59.5456 4.5 58.75C4.49938 58.356 5.21024 57.9659 6.59197 57.6018C7.9737 57.2378 9.99923 56.907 12.5529 56.6284C15.1066 56.3497 18.1384 56.1287 21.4751 55.9779C24.8119 55.8271 28.3883 55.7495 32 55.7495C35.6117 55.7495 39.1881 55.8271 42.5249 55.9779C45.8616 56.1287 48.8934 56.3497 51.4471 56.6284C54.0008 56.907 56.0263 57.2378 57.408 57.6018C58.7898 57.9659 59.5006 58.356 59.5 58.75V58.75Z" fill="url(#paint0_radial)"/>
<g opacity="0.4">
<path opacity="0.4" d="M59 57.75H51.8947V60.25H59V57.75Z" fill="url(#paint1_radial)"/>
<path opacity="0.4" d="M5.00002 60.25H12.1053V57.75H5.00002V60.25Z" fill="url(#paint2_radial)"/>
<path opacity="0.4" d="M51.8948 57.75H12.1053V60.25H51.8948V57.75Z" fill="url(#paint3_linear)"/>
</g>
<path d="M52.75 7.5H11.25C8.48858 7.5 6.25 9.73858 6.25 12.5V54C6.25 56.7614 8.48858 59 11.25 59H52.75C55.5114 59 57.75 56.7614 57.75 54V12.5C57.75 9.73858 55.5114 7.5 52.75 7.5Z" fill="url(#paint4_linear)"/>
<path d="M11.25 8.75H52.75C54.683 8.75 56.5 10.567 56.5 12.5V54C56.5 55.933 54.683 57.75 52.75 57.75H11.25C9.317 57.75 7.5 55.933 7.5 54V12.75C7.5 11.8019 7.93973 10.787 8.67403 10.0004C9.40837 9.21371 10.3462 8.75 11.25 8.75Z" stroke="url(#paint5_linear)" stroke-width="2"/>
<path d="M11.25 8.75H52.75C54.683 8.75 56.5 10.567 56.5 12.5V54C56.5 55.933 54.683 57.75 52.75 57.75H11.25C9.317 57.75 7.5 55.933 7.5 54V12.75C7.5 11.8019 7.93973 10.787 8.67403 10.0004C9.40837 9.21371 10.3462 8.75 11.25 8.75Z" stroke="url(#paint6_linear)" stroke-width="2"/>
<path d="M11.25 8.75H52.75C54.683 8.75 56.5 10.567 56.5 12.5V54C56.5 55.933 54.683 57.75 52.75 57.75H11.25C9.317 57.75 7.5 55.933 7.5 54V12.75C7.5 11.8019 7.93973 10.787 8.67403 10.0004C9.40837 9.21371 10.3462 8.75 11.25 8.75Z" stroke="url(#paint7_linear)" stroke-width="2"/>
<path d="M11.25 8.75H52.75C54.683 8.75 56.5 10.567 56.5 12.5V54C56.5 55.933 54.683 57.75 52.75 57.75H11.25C9.317 57.75 7.5 55.933 7.5 54V12.75C7.5 11.8019 7.93973 10.787 8.67403 10.0004C9.40837 9.21371 10.3462 8.75 11.25 8.75Z" stroke="url(#paint8_linear)" stroke-opacity="0.8" stroke-width="2"/>
<path opacity="0.3" d="M52.75 7.75H11.25C8.76472 7.75 6.5 10.2647 6.5 12.75V54C6.5 56.4853 8.76472 58.75 11.25 58.75H52.75C55.2353 58.75 57.5 56.4853 57.5 54V12.5C57.5 10.0147 55.2353 7.75 52.75 7.75Z" stroke="url(#paint9_linear)" stroke-linecap="round" stroke-linejoin="round"/>
<path opacity="0.5" d="M52.75 7.5H11.25C8.48858 7.5 6.25 9.73858 6.25 12.5V54C6.25 56.7614 8.48858 59 11.25 59H52.75C55.5114 59 57.75 56.7614 57.75 54V12.5C57.75 9.73858 55.5114 7.5 52.75 7.5Z" stroke="#273445" stroke-linecap="round" stroke-linejoin="round"/>
<circle cx="32" cy="33.5" r="14" stroke="black" stroke-opacity="0.15" stroke-width="7"/>
<circle cx="32" cy="33.5" r="14" stroke="black" stroke-opacity="0.07" stroke-width="7"/>
<circle cx="32" cy="33" r="14" stroke="url(#paint10_linear)" stroke-width="7"/>
<circle cx="32" cy="33" r="14" stroke="url(#paint11_linear)" stroke-width="7"/>
<circle cx="32" cy="33" r="14" stroke="url(#paint12_linear)" stroke-width="7"/>
<circle cx="32" cy="33" r="14" stroke="url(#paint13_linear)" stroke-width="7"/>
<circle cx="32" cy="33" r="14" stroke="black" stroke-opacity="0.15" stroke-width="7"/>
<circle opacity="0.5" cx="32" cy="33" r="17.5" stroke="url(#paint14_linear)" stroke-width="3" stroke-linecap="round" stroke-linejoin="round"/>
<defs>
<radialGradient id="paint0_radial" cx="0" cy="0" r="1" gradientUnits="userSpaceOnUse" gradientTransform="translate(32 58.75) scale(27.5 3)">
<stop/>
<stop offset="1" stop-opacity="0"/>
</radialGradient>
<radialGradient id="paint1_radial" cx="0" cy="0" r="1" gradientUnits="userSpaceOnUse" gradientTransform="translate(51.8847 59) scale(7.11871 1.25)">
<stop stop-color="#181818"/>
<stop offset="1" stop-color="#181818" stop-opacity="0"/>
</radialGradient>
<radialGradient id="paint2_radial" cx="0" cy="0" r="1" gradientUnits="userSpaceOnUse" gradientTransform="translate(12.1153 59) rotate(180) scale(7.11871 1.25)">
<stop stop-color="#181818"/>
<stop offset="1" stop-color="#181818" stop-opacity="0"/>
</radialGradient>
<linearGradient id="paint3_linear" x1="33.5036" y1="60.2599" x2="33.5036" y2="57.7498" gradientUnits="userSpaceOnUse">
<stop stop-color="#181818" stop-opacity="0"/>
<stop offset="0.5" stop-color="#181818"/>
<stop offset="1" stop-color="#181818" stop-opacity="0"/>
</linearGradient>
<linearGradient id="paint4_linear" x1="31.4358" y1="7.70366" x2="31.4358" y2="58.9635" gradientUnits="userSpaceOnUse">
<stop stop-color="#353535"/>
<stop offset="1" stop-color="#1A1A1A"/>
</linearGradient>
<linearGradient id="paint5_linear" x1="14.15" y1="50.7357" x2="48.3929" y2="13.2143" gradientUnits="userSpaceOnUse">
<stop stop-color="#A56DE2"/>
<stop offset="1" stop-color="#FAFF00"/>
</linearGradient>
<linearGradient id="paint6_linear" x1="32" y1="1.92143" x2="32" y2="33.25" gradientUnits="userSpaceOnUse">
<stop stop-color="#21E959"/>
<stop offset="0.53125" stop-color="#42FF77" stop-opacity="0.739583"/>
<stop offset="1" stop-color="white" stop-opacity="0"/>
</linearGradient>
<linearGradient id="paint7_linear" x1="-2.97143" y1="33.25" x2="32" y2="31.4286" gradientUnits="userSpaceOnUse">
<stop stop-color="#0085FF"/>
<stop offset="1" stop-color="white" stop-opacity="0"/>
</linearGradient>
<linearGradient id="paint8_linear" x1="51.6714" y1="51.8286" x2="32" y2="31.4286" gradientUnits="userSpaceOnUse">
<stop stop-color="#FF0000"/>
<stop offset="0.234375" stop-color="#FF3232" stop-opacity="0.6"/>
<stop offset="1" stop-color="white" stop-opacity="0"/>
</linearGradient>
<linearGradient id="paint9_linear" x1="32" y1="7.06081" x2="32" y2="59.4392" gradientUnits="userSpaceOnUse">
<stop stop-color="white"/>
<stop offset="0.0631645" stop-color="white" stop-opacity="0.235294"/>
<stop offset="0.950563" stop-color="white" stop-opacity="0.156863"/>
<stop offset="1" stop-color="white" stop-opacity="0.392157"/>
</linearGradient>
<linearGradient id="paint10_linear" x1="19.75" y1="45" x2="43.25" y2="19.25" gradientUnits="userSpaceOnUse">
<stop stop-color="#A56DE2"/>
<stop offset="1" stop-color="#FAFF00"/>
</linearGradient>
<linearGradient id="paint11_linear" x1="32" y1="15.5" x2="32" y2="33" gradientUnits="userSpaceOnUse">
<stop stop-color="#21E959"/>
<stop offset="0.53125" stop-color="#42FF77" stop-opacity="0.739583"/>
<stop offset="1" stop-color="white" stop-opacity="0"/>
</linearGradient>
<linearGradient id="paint12_linear" x1="15.75" y1="33" x2="32" y2="31.75" gradientUnits="userSpaceOnUse">
<stop stop-color="#0085FF"/>
<stop offset="1" stop-color="white" stop-opacity="0"/>
</linearGradient>
<linearGradient id="paint13_linear" x1="45.5" y1="45.75" x2="32" y2="31.75" gradientUnits="userSpaceOnUse">
<stop stop-color="#FF0000"/>
<stop offset="0.234375" stop-color="#FF3232" stop-opacity="0.6"/>
<stop offset="1" stop-color="white" stop-opacity="0"/>
</linearGradient>
<linearGradient id="paint14_linear" x1="31.4995" y1="14.9138" x2="31.4995" y2="50.9574" gradientUnits="userSpaceOnUse">
<stop stop-color="white"/>
<stop offset="0.507761" stop-color="white" stop-opacity="0.235294"/>
<stop offset="0.834566" stop-color="white" stop-opacity="0.156863"/>
<stop offset="1" stop-color="white" stop-opacity="0.392157"/>
</linearGradient>
</defs>
</svg>
